<svg width="165" height="30" viewBox="0 0 165 30" fill="none" xmlns="http://www.w3.org/2000/svg">
<circle cx="15" cy="15" r="13" stroke="#F17113" stroke-width="4"/>
<path d="M23.3333 15C23.3333 15.8361 23.2102 16.6435 22.9811 17.4049C20.6823 15.6169 17.8381 14.6449 14.9019 14.667C12.0316 14.6887 9.26366 15.659 7.01893 17.4049C6.7898 16.6435 6.66666 15.8361 6.66666 15C6.66666 10.3976 10.3976 6.66666 15 6.66666C19.6024 6.66666 23.3333 10.3976 23.3333 15Z" fill="#F17113"/>
<path d="M14.9135 16.2042C17.647 16.1835 20.2901 17.1402 22.3721 18.889C21.4074 20.714 19.7847 22.1376 17.82 22.8441C17.402 20.3583 16.2718 18.0563 14.5794 16.2116C14.6905 16.2075 14.8019 16.205 14.9135 16.2042Z" fill="#F17113"/>
<path d="M16.3251 23.2285C15.9156 20.6101 14.6111 18.2147 12.6354 16.4503C10.7984 16.8376 9.07654 17.6722 7.62787 18.889C9.02509 21.5321 11.8022 23.3333 15 23.3333C15.451 23.3333 15.8936 23.2975 16.3251 23.2285Z" fill="#F17113"/>
<path d="M44.0976 22.22C42.6709 22.22 41.4176 21.92 40.3376 21.32C39.2576 20.7067 38.4176 19.8533 37.8176 18.76C37.2309 17.6667 36.9376 16.3933 36.9376 14.94C36.9376 13.8467 37.1042 12.8533 37.4376 11.96C37.7842 11.0667 38.2709 10.3 38.8976 9.66C39.5376 9.02 40.2976 8.53333 41.1776 8.2C42.0576 7.85333 43.0309 7.68 44.0976 7.68C45.5242 7.68 46.7709 7.98 47.8376 8.58C48.9176 9.18 49.7576 10.0267 50.3576 11.12C50.9576 12.2 51.2576 13.4733 51.2576 14.94C51.2576 16.0333 51.0842 17.0267 50.7376 17.92C50.4042 18.8133 49.9176 19.5867 49.2776 20.24C48.6509 20.88 47.8976 21.3733 47.0176 21.72C46.1376 22.0533 45.1642 22.22 44.0976 22.22ZM44.0976 19.14C44.8042 19.14 45.4042 18.9733 45.8976 18.64C46.3909 18.3067 46.7709 17.8267 47.0376 17.2C47.3042 16.5733 47.4376 15.82 47.4376 14.94C47.4376 13.62 47.1442 12.5933 46.5576 11.86C45.9709 11.1267 45.1509 10.76 44.0976 10.76C43.4042 10.76 42.8042 10.9267 42.2976 11.26C41.8042 11.58 41.4242 12.0533 41.1576 12.68C40.8909 13.2933 40.7576 14.0467 40.7576 14.94C40.7576 16.26 41.0509 17.2933 41.6376 18.04C42.2242 18.7733 43.0442 19.14 44.0976 19.14ZM58.3904 22.22C57.2837 22.22 56.3171 22.0133 55.4904 21.6C54.6771 21.1867 54.0437 20.5933 53.5904 19.82C53.1371 19.0333 52.9104 18.1133 52.9104 17.06C52.9104 16.26 53.0371 15.5467 53.2904 14.92C53.5437 14.28 53.9104 13.74 54.3904 13.3C54.8837 12.86 55.4637 12.5267 56.1304 12.3C56.8104 12.06 57.5637 11.94 58.3904 11.94C58.7771 11.94 59.1837 11.98 59.6104 12.06C60.0371 12.1267 60.4771 12.26 60.9304 12.46C61.2504 12.58 61.4704 12.7667 61.5904 13.02C61.7237 13.26 61.7771 13.52 61.7504 13.8C61.7371 14.08 61.6571 14.3333 61.5104 14.56C61.3771 14.7867 61.1837 14.94 60.9304 15.02C60.6904 15.1 60.4171 15.0667 60.1104 14.92C59.8971 14.8133 59.6704 14.74 59.4304 14.7C59.2037 14.6467 58.9837 14.62 58.7704 14.62C58.4104 14.62 58.0904 14.6733 57.8104 14.78C57.5437 14.8867 57.3171 15.0467 57.1304 15.26C56.9437 15.46 56.7971 15.7133 56.6904 16.02C56.5971 16.3267 56.5504 16.6733 56.5504 17.06C56.5504 17.8333 56.7437 18.44 57.1304 18.88C57.5171 19.32 58.0637 19.54 58.7704 19.54C58.9837 19.54 59.2037 19.52 59.4304 19.48C59.6571 19.4267 59.8837 19.3467 60.1104 19.24C60.4171 19.0933 60.6904 19.0667 60.9304 19.16C61.1704 19.24 61.3637 19.3933 61.5104 19.62C61.6571 19.8467 61.7371 20.1 61.7504 20.38C61.7637 20.6467 61.7037 20.9067 61.5704 21.16C61.4371 21.4 61.2104 21.58 60.8904 21.7C60.4504 21.9 60.0171 22.0333 59.5904 22.1C59.1771 22.18 58.7771 22.22 58.3904 22.22ZM67.2695 22.18C66.6961 22.18 66.2561 22.0267 65.9495 21.72C65.6428 21.4133 65.4895 20.9667 65.4895 20.38V14.94H63.6495C62.6628 14.94 62.1695 14.4733 62.1695 13.54C62.1695 13.1 62.2961 12.76 62.5495 12.52C62.8161 12.28 63.1828 12.16 63.6495 12.16H70.8895C71.8761 12.16 72.3695 12.62 72.3695 13.54C72.3695 13.9933 72.2428 14.34 71.9895 14.58C71.7361 14.82 71.3695 14.94 70.8895 14.94H69.0495V20.38C69.0495 20.9667 68.8961 21.4133 68.5895 21.72C68.2961 22.0267 67.8561 22.18 67.2695 22.18ZM75.3257 25.78C74.7657 25.78 74.3324 25.6267 74.0257 25.32C73.719 25.0133 73.5657 24.5667 73.5657 23.98V13.76C73.5657 13.1867 73.7124 12.7467 74.0057 12.44C74.3124 12.1333 74.7457 11.98 75.3057 11.98C75.879 11.98 76.3124 12.1333 76.6057 12.44C76.9124 12.7467 77.0657 13.1867 77.0657 13.76V14.92L76.8457 13.94C77.0324 13.34 77.419 12.86 78.0057 12.5C78.6057 12.1267 79.2857 11.94 80.0457 11.94C80.899 11.94 81.6457 12.1467 82.2857 12.56C82.939 12.9733 83.4457 13.56 83.8057 14.32C84.1657 15.08 84.3457 16 84.3457 17.08C84.3457 18.1333 84.1657 19.0467 83.8057 19.82C83.4457 20.5933 82.939 21.1867 82.2857 21.6C81.6457 22.0133 80.899 22.22 80.0457 22.22C79.3124 22.22 78.6524 22.0467 78.0657 21.7C77.479 21.3533 77.0857 20.9 76.8857 20.34H77.1257V23.98C77.1257 24.5667 76.9657 25.0133 76.6457 25.32C76.339 25.6267 75.899 25.78 75.3257 25.78ZM78.9257 19.6C79.2857 19.6 79.599 19.5133 79.8657 19.34C80.1457 19.1533 80.3657 18.88 80.5257 18.52C80.6857 18.1467 80.7657 17.6667 80.7657 17.08C80.7657 16.1867 80.5924 15.5467 80.2457 15.16C79.899 14.76 79.459 14.56 78.9257 14.56C78.5657 14.56 78.2457 14.6467 77.9657 14.82C77.6857 14.9933 77.4657 15.2667 77.3057 15.64C77.1457 16 77.0657 16.48 77.0657 17.08C77.0657 17.96 77.239 18.6 77.5857 19C77.9324 19.4 78.379 19.6 78.9257 19.6ZM91.2996 22.22C90.2063 22.22 89.2529 22.0133 88.4396 21.6C87.6263 21.1867 86.9929 20.5933 86.5396 19.82C86.0863 19.0467 85.8596 18.1333 85.8596 17.08C85.8596 16.28 85.9863 15.5667 86.2396 14.94C86.4929 14.3 86.8596 13.76 87.3396 13.32C87.8196 12.8667 88.3929 12.5267 89.0596 12.3C89.7263 12.06 90.4729 11.94 91.2996 11.94C92.3929 11.94 93.3463 12.1467 94.1596 12.56C94.9729 12.9733 95.5996 13.5667 96.0396 14.34C96.4929 15.1 96.7196 16.0133 96.7196 17.08C96.7196 17.8667 96.5929 18.58 96.3396 19.22C96.0863 19.86 95.7196 20.4067 95.2396 20.86C94.7729 21.3 94.1996 21.64 93.5196 21.88C92.8529 22.1067 92.1129 22.22 91.2996 22.22ZM91.2996 19.6C91.6596 19.6 91.9796 19.5133 92.2596 19.34C92.5396 19.1533 92.7529 18.88 92.8996 18.52C93.0596 18.1467 93.1396 17.6667 93.1396 17.08C93.1396 16.1867 92.9663 15.5467 92.6196 15.16C92.2729 14.76 91.8329 14.56 91.2996 14.56C90.9396 14.56 90.6196 14.6467 90.3396 14.82C90.0596 14.9933 89.8396 15.2667 89.6796 15.64C89.5196 16 89.4396 16.48 89.4396 17.08C89.4396 17.96 89.6129 18.6 89.9596 19C90.3063 19.4 90.7529 19.6 91.2996 19.6ZM100.402 22C99.8424 22 99.4158 21.8533 99.1224 21.56C98.8291 21.2667 98.6824 20.84 98.6824 20.28V13.86C98.6824 13.3133 98.8291 12.8933 99.1224 12.6C99.4158 12.3067 99.8424 12.16 100.402 12.16H104.602C105.536 12.16 106.282 12.2667 106.842 12.48C107.402 12.68 107.802 12.9733 108.042 13.36C108.282 13.7467 108.402 14.2 108.402 14.72C108.402 15.3333 108.196 15.8467 107.782 16.26C107.382 16.6733 106.842 16.9333 106.162 17.04V16.74C107.082 16.82 107.749 17.08 108.162 17.52C108.576 17.9467 108.782 18.5067 108.782 19.2C108.782 20.0533 108.442 20.7333 107.762 21.24C107.082 21.7467 106.082 22 104.762 22H100.402ZM101.942 19.94H104.342C104.769 19.94 105.082 19.86 105.282 19.7C105.496 19.54 105.602 19.2933 105.602 18.96C105.602 18.64 105.496 18.4 105.282 18.24C105.082 18.08 104.769 18 104.342 18H101.942V19.94ZM101.942 15.94H104.162C104.496 15.94 104.756 15.8667 104.942 15.72C105.129 15.56 105.222 15.34 105.222 15.06C105.222 14.7667 105.129 14.5533 104.942 14.42C104.756 14.2733 104.496 14.2 104.162 14.2H101.942V15.94ZM118.06 25.78C117.5 25.78 117.067 25.6267 116.76 25.32C116.453 25.0133 116.3 24.5667 116.3 23.98V13.76C116.3 13.1867 116.447 12.7467 116.74 12.44C117.047 12.1333 117.48 11.98 118.04 11.98C118.613 11.98 119.047 12.1333 119.34 12.44C119.647 12.7467 119.8 13.1867 119.8 13.76V14.92L119.58 13.94C119.767 13.34 120.153 12.86 120.74 12.5C121.34 12.1267 122.02 11.94 122.78 11.94C123.633 11.94 124.38 12.1467 125.02 12.56C125.673 12.9733 126.18 13.56 126.54 14.32C126.9 15.08 127.08 16 127.08 17.08C127.08 18.1333 126.9 19.0467 126.54 19.82C126.18 20.5933 125.673 21.1867 125.02 21.6C124.38 22.0133 123.633 22.22 122.78 22.22C122.047 22.22 121.387 22.0467 120.8 21.7C120.213 21.3533 119.82 20.9 119.62 20.34H119.86V23.98C119.86 24.5667 119.7 25.0133 119.38 25.32C119.073 25.6267 118.633 25.78 118.06 25.78ZM121.66 19.6C122.02 19.6 122.333 19.5133 122.6 19.34C122.88 19.1533 123.1 18.88 123.26 18.52C123.42 18.1467 123.5 17.6667 123.5 17.08C123.5 16.1867 123.327 15.5467 122.98 15.16C122.633 14.76 122.193 14.56 121.66 14.56C121.3 14.56 120.98 14.6467 120.7 14.82C120.42 14.9933 120.2 15.2667 120.04 15.64C119.88 16 119.8 16.48 119.8 17.08C119.8 17.96 119.973 18.6 120.32 19C120.667 19.4 121.113 19.6 121.66 19.6ZM134.034 22.22C132.941 22.22 131.987 22.0133 131.174 21.6C130.361 21.1867 129.727 20.5933 129.274 19.82C128.821 19.0467 128.594 18.1333 128.594 17.08C128.594 16.28 128.721 15.5667 128.974 14.94C129.227 14.3 129.594 13.76 130.074 13.32C130.554 12.8667 131.127 12.5267 131.794 12.3C132.461 12.06 133.207 11.94 134.034 11.94C135.127 11.94 136.081 12.1467 136.894 12.56C137.707 12.9733 138.334 13.5667 138.774 14.34C139.227 15.1 139.454 16.0133 139.454 17.08C139.454 17.8667 139.327 18.58 139.074 19.22C138.821 19.86 138.454 20.4067 137.974 20.86C137.507 21.3 136.934 21.64 136.254 21.88C135.587 22.1067 134.847 22.22 134.034 22.22ZM134.034 19.6C134.394 19.6 134.714 19.5133 134.994 19.34C135.274 19.1533 135.487 18.88 135.634 18.52C135.794 18.1467 135.874 17.6667 135.874 17.08C135.874 16.1867 135.701 15.5467 135.354 15.16C135.007 14.76 134.567 14.56 134.034 14.56C133.674 14.56 133.354 14.6467 133.074 14.82C132.794 14.9933 132.574 15.2667 132.414 15.64C132.254 16 132.174 16.48 132.174 17.08C132.174 17.96 132.347 18.6 132.694 19C133.041 19.4 133.487 19.6 134.034 19.6ZM149.501 22.18C148.941 22.18 148.508 22.0267 148.201 21.72C147.895 21.4133 147.741 20.9667 147.741 20.38V14.88H145.681V15.94C145.681 16.7133 145.615 17.4333 145.481 18.1C145.361 18.7533 145.181 19.3333 144.941 19.84C144.701 20.3467 144.388 20.7867 144.001 21.16C143.628 21.52 143.181 21.8067 142.661 22.02C142.261 22.18 141.895 22.22 141.561 22.14C141.241 22.0733 140.975 21.9267 140.761 21.7C140.548 21.4733 140.408 21.2067 140.341 20.9C140.288 20.5933 140.328 20.2933 140.461 20C140.595 19.6933 140.841 19.4267 141.201 19.2C141.455 19.04 141.661 18.8533 141.821 18.64C141.981 18.4133 142.108 18.16 142.201 17.88C142.295 17.5867 142.355 17.2733 142.381 16.94C142.421 16.5933 142.441 16.22 142.441 15.82V14.14C142.441 13.4867 142.608 12.9933 142.941 12.66C143.288 12.3267 143.781 12.16 144.421 12.16H149.321C149.961 12.16 150.448 12.3267 150.781 12.66C151.128 12.9933 151.301 13.4867 151.301 14.14V20.38C151.301 20.9667 151.141 21.4133 150.821 21.72C150.515 22.0267 150.075 22.18 149.501 22.18ZM161.982 22.18C161.422 22.18 160.989 22.0267 160.682 21.72C160.375 21.4133 160.222 20.9667 160.222 20.38V14.88H158.162V15.94C158.162 16.7133 158.095 17.4333 157.962 18.1C157.842 18.7533 157.662 19.3333 157.422 19.84C157.182 20.3467 156.869 20.7867 156.482 21.16C156.109 21.52 155.662 21.8067 155.142 22.02C154.742 22.18 154.375 22.22 154.042 22.14C153.722 22.0733 153.455 21.9267 153.242 21.7C153.029 21.4733 152.889 21.2067 152.822 20.9C152.769 20.5933 152.809 20.2933 152.942 20C153.075 19.6933 153.322 19.4267 153.682 19.2C153.935 19.04 154.142 18.8533 154.302 18.64C154.462 18.4133 154.589 18.16 154.682 17.88C154.775 17.5867 154.835 17.2733 154.862 16.94C154.902 16.5933 154.922 16.22 154.922 15.82V14.14C154.922 13.4867 155.089 12.9933 155.422 12.66C155.769 12.3267 156.262 12.16 156.902 12.16H161.802C162.442 12.16 162.929 12.3267 163.262 12.66C163.609 12.9933 163.782 13.4867 163.782 14.14V20.38C163.782 20.9667 163.622 21.4133 163.302 21.72C162.995 22.0267 162.555 22.18 161.982 22.18Z" fill="#200C02"/>
</svg>
